<svg xmlns="http://www.w3.org/2000/svg" xmlns:xlink="http://www.w3.org/1999/xlink" version="1.1" x="0px" y="0px" width="12px" height="12px" viewBox="0 0 12 12" enable-background="new 0 0 12 12" xml:space="preserve"><style>.style0{fill:	#1B9CD2;}</style><path d="M6 12c-3.312 0-6-2.687-6-6c0-3.312 2.688-6 6-6c3.313 0 6 2.7 6 6C12 9.3 9.3 12 6 12z M8.827 7.4 L7.415 6l1.412-1.414c0.094-0.094 0.149-0.22 0.149-0.352c0-0.133-0.056-0.267-0.149-0.36L8.124 3.2 C8.03 3.1 7.9 3 7.8 3.023c-0.135 0-0.258 0.054-0.352 0.147L6 4.586L4.586 3.171c-0.094-0.094-0.22-0.147-0.352-0.147 c-0.133 0-0.267 0.054-0.36 0.147L3.171 3.874c-0.094 0.094-0.148 0.228-0.148 0.36c0 0.1 0.1 0.3 0.1 0.352L4.586 6 L3.171 7.415C3.078 7.5 3 7.6 3 7.767c0 0.1 0.1 0.3 0.1 0.357l0.703 0.703c0.094 0.1 0.2 0.1 0.4 0.1 c0.132 0 0.258-0.056 0.352-0.149L6 7.415l1.415 1.412c0.094 0.1 0.2 0.1 0.4 0.149c0.132 0 0.264-0.056 0.357-0.149 l0.703-0.703C8.921 8 9 7.9 9 7.767C8.977 7.6 8.9 7.5 8.8 7.415z" class="style0"/></svg>