<svg xmlns="http://www.w3.org/2000/svg" xmlns:xlink="http://www.w3.org/1999/xlink" version="1.1" x="0px" y="0px" width="10px" height="10px" viewBox="0 0 10 10" enable-background="new 0 0 10 10" xml:space="preserve"><style>.style0{opacity:	0.25;}.style1{fill:	#FFFFFF;}</style><g class="style0"><path d="M10 5.681c0 0.377-0.305 0.682-0.681 0.682H6.364v2.955C6.364 9.7 6.1 10 5.7 10H4.319 c-0.377 0-0.683-0.305-0.683-0.682V6.363H0.683C0.306 6.4 0 6.1 0 5.681V4.318c0-0.377 0.306-0.682 0.683-0.682h2.954V0.682 C3.637 0.3 3.9 0 4.3 0h1.363C6.06 0 6.4 0.3 6.4 0.682v2.955h2.955C9.695 3.6 10 3.9 10 4.318V5.681z" class="style1"/></g></svg>